<?xml version="1.0" encoding="UTF-8" standalone="no"?>
<svg width="21px" height="24px" viewBox="0 0 21 24" version="1.1" xmlns="http://www.w3.org/2000/svg" xmlns:xlink="http://www.w3.org/1999/xlink" xmlns:sketch="http://www.bohemiancoding.com/sketch/ns">
    <title>Search icon</title>
    <description>Created with Sketch (http://www.bohemiancoding.com/sketch)</description>

  <defs>
    <filter id="f1" x="0" y="0" width="100%" height="200%">
      <feOffset result="offOut" in="SourceAlpha" dx="0" dy="1" />
      <feGaussianBlur result="blurOut" in="offOut" stdDeviation="0" />
      <feBlend in="SourceGraphic" in2="blurOut" mode="normal" />
    </filter>
  </defs>

    <style>



    .bar {
    fill: none;
    pointer-events: all;

	}

	.bar:hover, .icon:hover { 
	    fill: red;
	}

	.bar:hover + #Page1 {
     fill: orange ;             
	}


	.parent:hover > div {
	  opacity: 0.5;
	}


	.bar:hover .bar
	{
	    fill: red;
	}


	.icon { 
	    fill: #4D7FBD;
	}


	.icon:hover{
	    opacity: 0.5;
	}


</style>


    <g id="Page1" stroke="none" stroke-width="1" fill="none" fill-rule="evenodd">

	   <rect class="bar" x="0" y="0" width="21" height="24" stroke="black" stroke-width="1"/>


        <path class="icon" d="M8,13.9038627 C10.7614239,13.9038627 13,11.6652866 13,8.90386267 C13,6.14243878 10.7614239,3.90386267 8,3.90386267 C5.23857611,3.90386267 3,6.14243878 3,8.90386267 C3,11.6652866 5.23857611,13.9038627 8,13.9038627 Z M8,16.9038627 C3.58172178,16.9038627 0,13.3221409 0,8.90386267 C0,4.48558445 3.58172178,0.903862666 8,0.903862666 C12.4182782,0.903862666 16,4.48558445 16,8.90386267 C16,13.3221409 12.4182782,16.9038627 8,16.9038627 Z M13.1109127,17.3432025 L15.9393398,14.5147754 L20.8890873,19.4645228 L18.0606602,22.29295 Z M13.1109127,17.3432025" id="Oval 2"  filter="url(#f1)"></path>
    </g>

</svg>